<?xml version="1.0" encoding="utf-8"?>
<!-- Generator: Adobe Illustrator 24.1.1, SVG Export Plug-In . SVG Version: 6.00 Build 0)  -->
<svg version="1.1" id="Layer_1" xmlns="http://www.w3.org/2000/svg" xmlns:xlink="http://www.w3.org/1999/xlink" x="0px" y="0px"
	 viewBox="0 0 512 512" style="enable-background:new 0 0 512 512;" xml:space="preserve">
<g>
	<path d="M384,384c0,70.7-57.3,128-128,128c-70.68,0-128-57.3-128-128c0-40.27,18.98-78.23,51.2-102.4V76.8
		C179.2,34.4,213.6,0,256,0c42.42,0,76.8,34.4,76.8,76.8v204.8C363.9,304.95,384,342.13,384,384z M302.08,322.55l-20.48-15.38V76.8
		c0-14.13-11.45-25.6-25.6-25.6c-14.13,0-25.6,11.47-25.6,25.6v230.37l-20.45,15.38c-33.93,25.43-40.82,73.58-15.4,107.5
		c25.43,33.95,73.57,40.85,107.53,15.43c33.92-25.45,40.82-73.58,15.4-107.52C313.1,332.1,307.9,326.92,302.08,322.55z M256,435.2
		c-28.27,0-51.2-22.9-51.2-51.2c0-28.27,22.93-51.2,51.2-51.2c28.3,0,51.2,22.93,51.2,51.2C307.2,412.3,284.3,435.2,256,435.2z"/>
</g>
</svg>
